<svg xmlns="http://www.w3.org/2000/svg" xmlns:xlink="http://www.w3.org/1999/xlink" width="500" zoomAndPan="magnify" viewBox="0 0 375 374.999991" height="500" preserveAspectRatio="xMidYMid meet" version="1.0"><defs><g/></defs><g fill="#000000" fill-opacity="1"><g transform="translate(27.175784, 204.600375)"><g><path d="M 20.0625 1.140625 C 15.21875 1.140625 11.304688 0.046875 8.328125 -2.140625 C 5.347656 -4.335938 3.421875 -7.394531 2.546875 -11.3125 L 12.09375 -14.453125 C 12.320312 -13.347656 12.757812 -12.359375 13.40625 -11.484375 C 14.75 -9.554688 16.707031 -8.59375 19.28125 -8.59375 C 20.738281 -8.59375 22.140625 -8.910156 23.484375 -9.546875 C 24.828125 -10.191406 25.5 -11.1875 25.5 -12.53125 C 25.5 -14.34375 24.242188 -15.742188 21.734375 -16.734375 L 11.390625 -20.953125 C 8.648438 -22.117188 6.546875 -23.867188 5.078125 -26.203125 C 3.617188 -28.535156 2.890625 -31.398438 2.890625 -34.796875 C 2.890625 -37.953125 3.660156 -40.664062 5.203125 -42.9375 C 6.753906 -45.21875 8.800781 -46.957031 11.34375 -48.15625 C 13.882812 -49.351562 16.617188 -49.953125 19.546875 -49.953125 C 23.222656 -49.953125 26.609375 -48.882812 29.703125 -46.75 C 32.804688 -44.625 34.882812 -41.71875 35.9375 -38.03125 L 25.765625 -34.875 C 25.535156 -35.875 25.128906 -36.867188 24.546875 -37.859375 C 23.253906 -39.847656 21.613281 -40.84375 19.625 -40.84375 C 18.164062 -40.84375 16.910156 -40.503906 15.859375 -39.828125 C 14.804688 -39.160156 14.28125 -38.179688 14.28125 -36.890625 C 14.28125 -35.378906 15.710938 -33.976562 18.578125 -32.6875 L 27.34375 -29.09375 C 30.4375 -27.632812 32.859375 -25.796875 34.609375 -23.578125 C 36.367188 -21.359375 37.25 -18.378906 37.25 -14.640625 C 37.25 -11.242188 36.429688 -8.363281 34.796875 -6 C 33.160156 -3.632812 31.023438 -1.851562 28.390625 -0.65625 C 25.765625 0.539062 22.988281 1.140625 20.0625 1.140625 Z M 20.0625 1.140625 "/></g></g></g><g fill="#000000" fill-opacity="1"><g transform="translate(66.698159, 204.600375)"><g><path d="M 21.390625 1.140625 C 15.484375 1.140625 10.9375 -1.195312 7.75 -5.875 C 4.570312 -10.550781 2.984375 -16.773438 2.984375 -24.546875 C 2.984375 -32.253906 4.554688 -38.414062 7.703125 -43.03125 C 10.859375 -47.644531 15.421875 -49.953125 21.390625 -49.953125 C 27.285156 -49.953125 31.851562 -47.644531 35.09375 -43.03125 C 38.34375 -38.414062 39.96875 -32.253906 39.96875 -24.546875 C 39.96875 -16.828125 38.34375 -10.613281 35.09375 -5.90625 C 31.851562 -1.207031 27.285156 1.140625 21.390625 1.140625 Z M 21.390625 -7.96875 C 24.015625 -7.96875 25.707031 -9.570312 26.46875 -12.78125 C 27.226562 -16 27.609375 -19.945312 27.609375 -24.625 C 27.609375 -29.300781 27.226562 -33.242188 26.46875 -36.453125 C 25.707031 -39.671875 24.015625 -41.28125 21.390625 -41.28125 C 18.753906 -41.28125 17.085938 -39.757812 16.390625 -36.71875 C 15.691406 -33.6875 15.34375 -29.976562 15.34375 -25.59375 C 15.34375 -20.21875 15.691406 -15.9375 16.390625 -12.75 C 17.085938 -9.5625 18.753906 -7.96875 21.390625 -7.96875 Z M 21.390625 -7.96875 "/></g></g></g><g fill="#000000" fill-opacity="1"><g transform="translate(109.638219, 204.600375)"><g><path d="M 15.953125 1.140625 C 12.734375 1.140625 10.101562 0.015625 8.0625 -2.234375 C 6.019531 -4.484375 5 -7.507812 5 -11.3125 L 5 -48.296875 L 17.265625 -49.34375 L 17.265625 -16.296875 C 17.265625 -13.960938 17.644531 -12.285156 18.40625 -11.265625 C 19.164062 -10.242188 20.332031 -9.734375 21.90625 -9.734375 C 23.132812 -9.734375 24.445312 -10.035156 25.84375 -10.640625 C 27.25 -11.253906 28.507812 -12.234375 29.625 -13.578125 L 29.625 -48.296875 L 41.984375 -49.34375 L 41.984375 -0.53125 L 29.625 0.53125 L 29.625 -5.78125 C 27.582031 -3.445312 25.347656 -1.707031 22.921875 -0.5625 C 20.492188 0.570312 18.171875 1.140625 15.953125 1.140625 Z M 15.953125 1.140625 "/></g></g></g><g fill="#000000" fill-opacity="1"><g transform="translate(156.872286, 204.600375)"><g><path d="M 20.0625 1.140625 C 15.21875 1.140625 11.304688 0.046875 8.328125 -2.140625 C 5.347656 -4.335938 3.421875 -7.394531 2.546875 -11.3125 L 12.09375 -14.453125 C 12.320312 -13.347656 12.757812 -12.359375 13.40625 -11.484375 C 14.75 -9.554688 16.707031 -8.59375 19.28125 -8.59375 C 20.738281 -8.59375 22.140625 -8.910156 23.484375 -9.546875 C 24.828125 -10.191406 25.5 -11.1875 25.5 -12.53125 C 25.5 -14.34375 24.242188 -15.742188 21.734375 -16.734375 L 11.390625 -20.953125 C 8.648438 -22.117188 6.546875 -23.867188 5.078125 -26.203125 C 3.617188 -28.535156 2.890625 -31.398438 2.890625 -34.796875 C 2.890625 -37.953125 3.660156 -40.664062 5.203125 -42.9375 C 6.753906 -45.21875 8.800781 -46.957031 11.34375 -48.15625 C 13.882812 -49.351562 16.617188 -49.953125 19.546875 -49.953125 C 23.222656 -49.953125 26.609375 -48.882812 29.703125 -46.75 C 32.804688 -44.625 34.882812 -41.71875 35.9375 -38.03125 L 25.765625 -34.875 C 25.535156 -35.875 25.128906 -36.867188 24.546875 -37.859375 C 23.253906 -39.847656 21.613281 -40.84375 19.625 -40.84375 C 18.164062 -40.84375 16.910156 -40.503906 15.859375 -39.828125 C 14.804688 -39.160156 14.28125 -38.179688 14.28125 -36.890625 C 14.28125 -35.378906 15.710938 -33.976562 18.578125 -32.6875 L 27.34375 -29.09375 C 30.4375 -27.632812 32.859375 -25.796875 34.609375 -23.578125 C 36.367188 -21.359375 37.25 -18.378906 37.25 -14.640625 C 37.25 -11.242188 36.429688 -8.363281 34.796875 -6 C 33.160156 -3.632812 31.023438 -1.851562 28.390625 -0.65625 C 25.765625 0.539062 22.988281 1.140625 20.0625 1.140625 Z M 20.0625 1.140625 "/></g></g></g><g fill="#000000" fill-opacity="1"><g transform="translate(196.394661, 204.600375)"><g><path d="M 14.109375 0 L 0.34375 -48.296875 L 15.078125 -49.34375 L 21.296875 -17.796875 L 28.390625 -47.765625 L 39.53125 -48.8125 L 25.421875 0 Z M 14.109375 0 "/></g></g></g><g fill="#000000" fill-opacity="1"><g transform="translate(236.267568, 204.600375)"><g><path d="M 5.4375 -55.65625 L 5.4375 -68.359375 L 17.703125 -69.234375 L 17.703125 -56.171875 Z M 5.34375 0.53125 L 5.34375 -48.296875 L 17.609375 -49.34375 L 17.609375 -0.53125 Z M 5.34375 0.53125 "/></g></g></g><g fill="#000000" fill-opacity="1"><g transform="translate(259.314983, 204.600375)"><g><path d="M 5.34375 -48.296875 L 17.609375 -49.34375 L 17.609375 -43.03125 C 20.128906 -45.25 22.597656 -46.957031 25.015625 -48.15625 C 27.441406 -49.351562 29.675781 -49.953125 31.71875 -49.953125 C 34.820312 -49.953125 37.351562 -48.828125 39.3125 -46.578125 C 41.269531 -44.328125 42.25 -41.304688 42.25 -37.515625 L 42.25 -0.53125 L 29.96875 0.53125 L 29.96875 -32.859375 C 29.96875 -37.242188 28.476562 -39.4375 25.5 -39.4375 C 24.507812 -39.4375 23.414062 -39.144531 22.21875 -38.5625 C 21.019531 -37.976562 19.484375 -37.128906 17.609375 -36.015625 L 17.609375 -0.53125 L 5.34375 0.53125 Z M 5.34375 -48.296875 "/></g></g></g><g fill="#000000" fill-opacity="1"><g transform="translate(306.54905, 204.600375)"><g><path d="M 21.03125 1.140625 C 15.1875 1.140625 10.71875 -1.179688 7.625 -5.828125 C 4.53125 -10.472656 2.984375 -16.648438 2.984375 -24.359375 C 2.984375 -32.191406 4.554688 -38.414062 7.703125 -43.03125 C 10.859375 -47.644531 15.445312 -49.953125 21.46875 -49.953125 C 27.195312 -49.953125 31.578125 -47.644531 34.609375 -43.03125 C 37.648438 -38.414062 39.171875 -32.191406 39.171875 -24.359375 C 39.171875 -23.890625 39.082031 -23.550781 38.90625 -23.34375 C 38.738281 -23.144531 38.65625 -23.019531 38.65625 -22.96875 L 15.25 -22.96875 C 15.25 -19.164062 15.742188 -15.703125 16.734375 -12.578125 C 17.734375 -9.453125 19.253906 -7.890625 21.296875 -7.890625 C 23.578125 -7.890625 25.269531 -9.203125 26.375 -11.828125 C 27.488281 -14.460938 28.070312 -15.835938 28.125 -15.953125 L 37.421875 -12.4375 C 36.191406 -8.238281 34.234375 -4.925781 31.546875 -2.5 C 28.859375 -0.0703125 25.351562 1.140625 21.03125 1.140625 Z M 27.078125 -30.0625 C 27.078125 -33.5625 26.609375 -36.332031 25.671875 -38.375 C 24.742188 -40.425781 23.285156 -41.453125 21.296875 -41.453125 C 20.304688 -41.453125 19.34375 -40.953125 18.40625 -39.953125 C 17.46875 -38.960938 16.707031 -37.59375 16.125 -35.84375 C 15.539062 -34.09375 15.25 -32.164062 15.25 -30.0625 Z M 27.078125 -30.0625 "/></g></g></g></svg>