<svg xmlns="http://www.w3.org/2000/svg" xmlns:xlink="http://www.w3.org/1999/xlink" width="500" zoomAndPan="magnify" viewBox="0 0 375 374.999991" height="500" preserveAspectRatio="xMidYMid meet" version="1.0"><defs><g/></defs><rect x="-37.5" width="450" fill="#ffffff" y="-37.499999" height="449.999989" fill-opacity="1"/><rect x="-37.5" width="450" fill="#ffffff" y="-37.499999" height="449.999989" fill-opacity="1"/><g fill="#000000" fill-opacity="1"><g transform="translate(30.605205, 274.893272)"><g><path d="M 37.0625 -24.53125 C 28.457031 -18.113281 20.070312 -14.875 11.90625 -14.8125 C 3.738281 -14.757812 -3.710938 -17.617188 -10.453125 -23.390625 L 2.296875 -41.609375 C 4.179688 -39.941406 6.269531 -38.757812 8.5625 -38.0625 C 13.488281 -36.425781 18.234375 -37.3125 22.796875 -40.71875 C 25.378906 -42.644531 27.4375 -45.0625 28.96875 -47.96875 C 30.5 -50.882812 30.375 -53.535156 28.59375 -55.921875 C 26.195312 -59.128906 22.117188 -59.957031 16.359375 -58.40625 L -7.515625 -52.171875 C -13.921875 -50.617188 -19.960938 -50.945312 -25.640625 -53.15625 C -31.328125 -55.363281 -36.410156 -59.46875 -40.890625 -65.46875 C -45.054688 -71.050781 -47.273438 -76.882812 -47.546875 -82.96875 C -47.828125 -89.0625 -46.503906 -94.847656 -43.578125 -100.328125 C -40.660156 -105.804688 -36.613281 -110.476562 -31.4375 -114.34375 C -24.925781 -119.207031 -17.515625 -121.800781 -9.203125 -122.125 C -0.898438 -122.445312 6.613281 -120.039062 13.34375 -114.90625 L -0.46875 -95.859375 C -2.195312 -97.316406 -4.242188 -98.539062 -6.609375 -99.53125 C -11.515625 -101.34375 -15.722656 -100.9375 -19.234375 -98.3125 C -21.816406 -96.375 -23.597656 -94.113281 -24.578125 -91.53125 C -25.554688 -88.957031 -25.195312 -86.53125 -23.5 -84.25 C -21.488281 -81.5625 -17.09375 -80.972656 -10.3125 -82.484375 L 9.953125 -87.71875 C 17.378906 -89.226562 24.113281 -89.171875 30.15625 -87.546875 C 36.195312 -85.929688 41.6875 -81.816406 46.625 -75.203125 C 51.101562 -69.191406 53.457031 -63.003906 53.6875 -56.640625 C 53.925781 -50.285156 52.507812 -44.3125 49.4375 -38.71875 C 46.363281 -33.125 42.238281 -28.394531 37.0625 -24.53125 Z M 37.0625 -24.53125 "/></g></g></g><g fill="#000000" fill-opacity="1"><g transform="translate(100.624991, 222.620715)"><g><path d="M 39.390625 -26.265625 C 28.929688 -18.460938 17.789062 -16.59375 5.96875 -20.65625 C -5.851562 -24.726562 -16.898438 -33.644531 -27.171875 -47.40625 C -37.367188 -61.070312 -42.722656 -74.078125 -43.234375 -86.421875 C -43.753906 -98.773438 -38.734375 -108.894531 -28.171875 -116.78125 C -17.722656 -124.582031 -6.578125 -126.535156 5.265625 -122.640625 C 17.117188 -118.753906 28.144531 -109.976562 38.34375 -96.3125 C 48.539062 -82.644531 53.875 -69.503906 54.34375 -56.890625 C 54.820312 -44.273438 49.835938 -34.066406 39.390625 -26.265625 Z M 27.34375 -42.40625 C 32 -45.882812 32.875 -50.972656 29.96875 -57.671875 C 27.0625 -64.367188 22.519531 -71.859375 16.34375 -80.140625 C 10.15625 -88.421875 4.265625 -94.90625 -1.328125 -99.59375 C -6.921875 -104.28125 -12.046875 -104.882812 -16.703125 -101.40625 C -21.359375 -97.925781 -22.300781 -93.03125 -19.53125 -86.71875 C -16.757812 -80.414062 -12.472656 -73.382812 -6.671875 -65.625 C 0.429688 -56.09375 6.710938 -48.96875 12.171875 -44.25 C 17.628906 -39.539062 22.6875 -38.925781 27.34375 -42.40625 Z M 27.34375 -42.40625 "/></g></g></g><g fill="#000000" fill-opacity="1"><g transform="translate(176.699702, 165.827915)"><g><path d="M 29.765625 -19.078125 C 24.066406 -14.828125 17.921875 -13.34375 11.328125 -14.625 C 4.734375 -15.90625 -1.070312 -19.910156 -6.09375 -26.640625 L -55 -92.15625 L -34.65625 -110.234375 L 9.046875 -51.703125 C 12.128906 -47.554688 15.019531 -45.082031 17.71875 -44.28125 C 20.414062 -43.476562 23.160156 -44.117188 25.953125 -46.203125 C 28.117188 -47.828125 30.039062 -50.113281 31.71875 -53.0625 C 33.394531 -56.007812 34.320312 -59.398438 34.5 -63.234375 L -11.390625 -124.71875 L 9.125 -142.921875 L 73.6875 -56.4375 L 53.15625 -38.25 L 44.828125 -49.40625 C 44.296875 -42.570312 42.632812 -36.539062 39.84375 -31.3125 C 37.050781 -26.09375 33.691406 -22.015625 29.765625 -19.078125 Z M 29.765625 -19.078125 "/></g></g><g transform="translate(260.381881, 103.355838)"><g><path d="M 37.0625 -24.53125 C 28.457031 -18.113281 20.070312 -14.875 11.90625 -14.8125 C 3.738281 -14.757812 -3.710938 -17.617188 -10.453125 -23.390625 L 2.296875 -41.609375 C 4.179688 -39.941406 6.269531 -38.757812 8.5625 -38.0625 C 13.488281 -36.425781 18.234375 -37.3125 22.796875 -40.71875 C 25.378906 -42.644531 27.4375 -45.0625 28.96875 -47.96875 C 30.5 -50.882812 30.375 -53.535156 28.59375 -55.921875 C 26.195312 -59.128906 22.117188 -59.957031 16.359375 -58.40625 L -7.515625 -52.171875 C -13.921875 -50.617188 -19.960938 -50.945312 -25.640625 -53.15625 C -31.328125 -55.363281 -36.410156 -59.46875 -40.890625 -65.46875 C -45.054688 -71.050781 -47.273438 -76.882812 -47.546875 -82.96875 C -47.828125 -89.0625 -46.503906 -94.847656 -43.578125 -100.328125 C -40.660156 -105.804688 -36.613281 -110.476562 -31.4375 -114.34375 C -24.925781 -119.207031 -17.515625 -121.800781 -9.203125 -122.125 C -0.898438 -122.445312 6.613281 -120.039062 13.34375 -114.90625 L -0.46875 -95.859375 C -2.195312 -97.316406 -4.242188 -98.539062 -6.609375 -99.53125 C -11.515625 -101.34375 -15.722656 -100.9375 -19.234375 -98.3125 C -21.816406 -96.375 -23.597656 -94.113281 -24.578125 -91.53125 C -25.554688 -88.957031 -25.195312 -86.53125 -23.5 -84.25 C -21.488281 -81.5625 -17.09375 -80.972656 -10.3125 -82.484375 L 9.953125 -87.71875 C 17.378906 -89.226562 24.113281 -89.171875 30.15625 -87.546875 C 36.195312 -85.929688 41.6875 -81.816406 46.625 -75.203125 C 51.101562 -69.191406 53.457031 -63.003906 53.6875 -56.640625 C 53.925781 -50.285156 52.507812 -44.3125 49.4375 -38.71875 C 46.363281 -33.125 42.238281 -28.394531 37.0625 -24.53125 Z M 37.0625 -24.53125 "/></g></g></g><g fill="#000000" fill-opacity="1"><g transform="translate(94.097666, 392.10328)"><g><path d="M 23.328125 -17.640625 L -59.78125 -80.265625 L -36.75 -100.421875 L 12.96875 -56.03125 L -12.75 -114.46875 L 4.328125 -130.109375 L 42.015625 -31.765625 Z M 23.328125 -17.640625 "/></g></g></g><g fill="#000000" fill-opacity="1"><g transform="translate(160.016959, 342.260009)"><g><path d="M -60.578125 -98.796875 L -76.46875 -119.8125 L -57.28125 -136.59375 L -40.953125 -115 Z M 9.5 -5.8125 L -51.515625 -86.515625 L -32.546875 -103.59375 L 28.46875 -22.890625 Z M 9.5 -5.8125 "/></g></g></g><g fill="#000000" fill-opacity="1"><g transform="translate(198.119757, 313.449505)"><g><path d="M -51.515625 -86.515625 L -32.546875 -103.59375 L -24.671875 -93.15625 C -23.285156 -99.96875 -21.335938 -105.875 -18.828125 -110.875 C -16.316406 -115.882812 -13.375 -119.671875 -10 -122.234375 C -4.875 -126.097656 0.707031 -127.394531 6.75 -126.125 C 12.800781 -124.851562 18.195312 -121.082031 22.9375 -114.8125 L 69.171875 -53.671875 L 50.203125 -36.59375 L 8.46875 -91.796875 C 2.988281 -99.035156 -2.210938 -100.789062 -7.140625 -97.0625 C -8.785156 -95.820312 -10.226562 -93.972656 -11.46875 -91.515625 C -12.71875 -89.054688 -14.195312 -85.738281 -15.90625 -81.5625 L 28.46875 -22.890625 L 9.5 -5.8125 Z M -51.515625 -86.515625 "/></g></g></g><g fill="#000000" fill-opacity="1"><g transform="translate(276.208778, 254.40439)"><g><path d="M 36.1875 -24.421875 C 26.539062 -17.117188 16.253906 -15.367188 5.328125 -19.171875 C -5.597656 -22.972656 -15.882812 -31.25 -25.53125 -44 C -35.320312 -56.945312 -40.488281 -69.207031 -41.03125 -80.78125 C -41.582031 -92.351562 -36.882812 -101.898438 -26.9375 -109.421875 C -17.476562 -116.578125 -7.351562 -118.238281 3.4375 -114.40625 C 14.226562 -110.582031 24.519531 -102.195312 34.3125 -89.25 C 34.894531 -88.476562 35.164062 -87.8125 35.125 -87.25 C 35.09375 -86.6875 35.113281 -86.363281 35.1875 -86.28125 L -3.484375 -57.03125 C 1.265625 -50.75 6.410156 -45.640625 11.953125 -41.703125 C 17.503906 -37.773438 21.96875 -37.09375 25.34375 -39.65625 C 29.113281 -42.5 30.269531 -46.789062 28.8125 -52.53125 C 27.363281 -58.269531 26.617188 -61.273438 26.578125 -61.546875 L 46.296875 -67.359375 C 49.535156 -58.867188 50.445312 -50.9375 49.03125 -43.5625 C 47.613281 -36.195312 43.332031 -29.816406 36.1875 -24.421875 Z M 7.1875 -83.53125 C 2.800781 -89.332031 -1.441406 -93.335938 -5.546875 -95.546875 C -9.648438 -97.765625 -13.34375 -97.632812 -16.625 -95.15625 C -18.269531 -93.90625 -19.238281 -91.875 -19.53125 -89.0625 C -19.832031 -86.25 -19.367188 -83.03125 -18.140625 -79.40625 C -16.910156 -75.78125 -14.984375 -72.226562 -12.359375 -68.75 Z M 7.1875 -83.53125 "/></g></g></g><g fill="#ffffff" fill-opacity="1"><g transform="translate(157.667424, 393.323499)"><g><path d="M 1.34375 -12.03125 L -126.890625 -15.28125 L -128.3125 -40.6875 L -0.078125 -37.4375 Z M 1.34375 -12.03125 "/></g></g></g></svg>