<svg xmlns="http://www.w3.org/2000/svg" xmlns:xlink="http://www.w3.org/1999/xlink" width="500" zoomAndPan="magnify" viewBox="0 0 375 374.999991" height="500" preserveAspectRatio="xMidYMid meet" version="1.0"><defs><g/></defs><rect x="-37.5" width="450" fill="#ffffff" y="-37.499999" height="449.999989" fill-opacity="1"/><rect x="-37.5" width="450" fill="#161616" y="-37.499999" height="449.999989" fill-opacity="1"/><g fill="#ffffff" fill-opacity="1"><g transform="translate(69.186438, 182.069377)"><g><path d="M 32.0625 1.8125 C 24.3125 1.8125 18.054688 0.0625 13.296875 -3.4375 C 8.535156 -6.9375 5.457031 -11.8125 4.0625 -18.0625 L 19.3125 -23.09375 C 19.6875 -21.320312 20.390625 -19.738281 21.421875 -18.34375 C 23.566406 -15.257812 26.691406 -13.71875 30.796875 -13.71875 C 33.128906 -13.71875 35.367188 -14.226562 37.515625 -15.25 C 39.660156 -16.28125 40.734375 -17.867188 40.734375 -20.015625 C 40.734375 -22.910156 38.726562 -25.148438 34.71875 -26.734375 L 18.203125 -33.453125 C 13.816406 -35.328125 10.457031 -38.128906 8.125 -41.859375 C 5.789062 -45.585938 4.625 -50.160156 4.625 -55.578125 C 4.625 -60.617188 5.859375 -64.957031 8.328125 -68.59375 C 10.804688 -72.238281 14.070312 -75.015625 18.125 -76.921875 C 22.1875 -78.835938 26.550781 -79.796875 31.21875 -79.796875 C 37.101562 -79.796875 42.515625 -78.09375 47.453125 -74.6875 C 52.398438 -71.28125 55.71875 -66.640625 57.40625 -60.765625 L 41.15625 -55.71875 C 40.78125 -57.300781 40.128906 -58.890625 39.203125 -60.484375 C 37.148438 -63.648438 34.535156 -65.234375 31.359375 -65.234375 C 29.023438 -65.234375 27.015625 -64.695312 25.328125 -63.625 C 23.648438 -62.550781 22.8125 -60.988281 22.8125 -58.9375 C 22.8125 -56.507812 25.101562 -54.269531 29.6875 -52.21875 L 43.6875 -46.484375 C 48.625 -44.148438 52.492188 -41.207031 55.296875 -37.65625 C 58.097656 -34.113281 59.5 -29.351562 59.5 -23.375 C 59.5 -17.96875 58.191406 -13.375 55.578125 -9.59375 C 52.960938 -5.8125 49.554688 -2.960938 45.359375 -1.046875 C 41.160156 0.859375 36.726562 1.8125 32.0625 1.8125 Z M 32.0625 1.8125 "/></g></g></g><g fill="#ffffff" fill-opacity="1"><g transform="translate(132.322905, 182.069377)"><g><path d="M 34.15625 1.8125 C 24.726562 1.8125 17.472656 -1.914062 12.390625 -9.375 C 7.304688 -16.84375 4.765625 -26.785156 4.765625 -39.203125 C 4.765625 -51.523438 7.28125 -61.367188 12.3125 -68.734375 C 17.351562 -76.109375 24.632812 -79.796875 34.15625 -79.796875 C 43.582031 -79.796875 50.882812 -76.109375 56.0625 -68.734375 C 61.25 -61.367188 63.84375 -51.523438 63.84375 -39.203125 C 63.84375 -26.878906 61.25 -16.960938 56.0625 -9.453125 C 50.882812 -1.941406 43.582031 1.8125 34.15625 1.8125 Z M 34.15625 -12.734375 C 38.351562 -12.734375 41.054688 -15.300781 42.265625 -20.4375 C 43.484375 -25.570312 44.09375 -31.875 44.09375 -39.34375 C 44.09375 -46.8125 43.484375 -53.109375 42.265625 -58.234375 C 41.054688 -63.367188 38.351562 -65.9375 34.15625 -65.9375 C 29.957031 -65.9375 27.296875 -63.507812 26.171875 -58.65625 C 25.054688 -53.800781 24.5 -47.875 24.5 -40.875 C 24.5 -32.289062 25.054688 -25.453125 26.171875 -20.359375 C 27.296875 -15.273438 29.957031 -12.734375 34.15625 -12.734375 Z M 34.15625 -12.734375 "/></g></g></g><g fill="#ffffff" fill-opacity="1"><g transform="translate(200.919073, 182.069377)"><g><path d="M 25.484375 1.8125 C 20.347656 1.8125 16.144531 0.0195312 12.875 -3.5625 C 9.613281 -7.15625 7.984375 -11.988281 7.984375 -18.0625 L 7.984375 -77.140625 L 27.578125 -78.8125 L 27.578125 -26.046875 C 27.578125 -22.304688 28.179688 -19.617188 29.390625 -17.984375 C 30.609375 -16.359375 32.476562 -15.546875 35 -15.546875 C 36.957031 -15.546875 39.054688 -16.035156 41.296875 -17.015625 C 43.535156 -17.992188 45.539062 -19.554688 47.3125 -21.703125 L 47.3125 -77.140625 L 67.0625 -78.8125 L 67.0625 -0.84375 L 47.3125 0.84375 L 47.3125 -9.234375 C 44.050781 -5.503906 40.484375 -2.726562 36.609375 -0.90625 C 32.734375 0.90625 29.023438 1.8125 25.484375 1.8125 Z M 25.484375 1.8125 "/></g></g></g><g fill="#ffffff" fill-opacity="1"><g transform="translate(276.374841, 182.069377)"><g><path d="M 32.0625 1.8125 C 24.3125 1.8125 18.054688 0.0625 13.296875 -3.4375 C 8.535156 -6.9375 5.457031 -11.8125 4.0625 -18.0625 L 19.3125 -23.09375 C 19.6875 -21.320312 20.390625 -19.738281 21.421875 -18.34375 C 23.566406 -15.257812 26.691406 -13.71875 30.796875 -13.71875 C 33.128906 -13.71875 35.367188 -14.226562 37.515625 -15.25 C 39.660156 -16.28125 40.734375 -17.867188 40.734375 -20.015625 C 40.734375 -22.910156 38.726562 -25.148438 34.71875 -26.734375 L 18.203125 -33.453125 C 13.816406 -35.328125 10.457031 -38.128906 8.125 -41.859375 C 5.789062 -45.585938 4.625 -50.160156 4.625 -55.578125 C 4.625 -60.617188 5.859375 -64.957031 8.328125 -68.59375 C 10.804688 -72.238281 14.070312 -75.015625 18.125 -76.921875 C 22.1875 -78.835938 26.550781 -79.796875 31.21875 -79.796875 C 37.101562 -79.796875 42.515625 -78.09375 47.453125 -74.6875 C 52.398438 -71.28125 55.71875 -66.640625 57.40625 -60.765625 L 41.15625 -55.71875 C 40.78125 -57.300781 40.128906 -58.890625 39.203125 -60.484375 C 37.148438 -63.648438 34.535156 -65.234375 31.359375 -65.234375 C 29.023438 -65.234375 27.015625 -64.695312 25.328125 -63.625 C 23.648438 -62.550781 22.8125 -60.988281 22.8125 -58.9375 C 22.8125 -56.507812 25.101562 -54.269531 29.6875 -52.21875 L 43.6875 -46.484375 C 48.625 -44.148438 52.492188 -41.207031 55.296875 -37.65625 C 58.097656 -34.113281 59.5 -29.351562 59.5 -23.375 C 59.5 -17.96875 58.191406 -13.375 55.578125 -9.59375 C 52.960938 -5.8125 49.554688 -2.960938 45.359375 -1.046875 C 41.160156 0.859375 36.726562 1.8125 32.0625 1.8125 Z M 32.0625 1.8125 "/></g></g></g><g fill="#ffffff" fill-opacity="1"><g transform="translate(53.285202, 291.491554)"><g><path d="M 22.546875 0 L 0.5625 -77.140625 L 24.078125 -78.8125 L 34.015625 -28.421875 L 45.359375 -76.296875 L 63.140625 -77.984375 L 40.59375 0 Z M 22.546875 0 "/></g></g></g><g fill="#ffffff" fill-opacity="1"><g transform="translate(116.98164, 291.491554)"><g><path d="M 8.6875 -88.90625 L 8.6875 -109.203125 L 28.28125 -110.59375 L 28.28125 -89.734375 Z M 8.546875 0.84375 L 8.546875 -77.140625 L 28.140625 -78.8125 L 28.140625 -0.84375 Z M 8.546875 0.84375 "/></g></g></g><g fill="#ffffff" fill-opacity="1"><g transform="translate(153.79958, 291.491554)"><g><path d="M 8.546875 -77.140625 L 28.140625 -78.8125 L 28.140625 -68.734375 C 32.148438 -72.285156 36.09375 -75.015625 39.96875 -76.921875 C 43.84375 -78.835938 47.414062 -79.796875 50.6875 -79.796875 C 55.625 -79.796875 59.65625 -78 62.78125 -74.40625 C 65.914062 -70.8125 67.484375 -65.984375 67.484375 -59.921875 L 67.484375 -0.84375 L 47.875 0.84375 L 47.875 -52.5 C 47.875 -59.5 45.492188 -63 40.734375 -63 C 39.148438 -63 37.398438 -62.53125 35.484375 -61.59375 C 33.578125 -60.664062 31.128906 -59.316406 28.140625 -57.546875 L 28.140625 -0.84375 L 8.546875 0.84375 Z M 8.546875 -77.140625 "/></g></g></g><g fill="#ffffff" fill-opacity="1"><g transform="translate(229.255359, 291.491554)"><g><path d="M 33.59375 1.8125 C 24.257812 1.8125 17.117188 -1.894531 12.171875 -9.3125 C 7.234375 -16.726562 4.765625 -26.597656 4.765625 -38.921875 C 4.765625 -51.429688 7.28125 -61.367188 12.3125 -68.734375 C 17.351562 -76.109375 24.679688 -79.796875 34.296875 -79.796875 C 43.441406 -79.796875 50.441406 -76.109375 55.296875 -68.734375 C 60.148438 -61.367188 62.578125 -51.429688 62.578125 -38.921875 C 62.578125 -38.171875 62.4375 -37.628906 62.15625 -37.296875 C 61.875 -36.972656 61.734375 -36.769531 61.734375 -36.6875 L 24.359375 -36.6875 C 24.359375 -30.613281 25.148438 -25.078125 26.734375 -20.078125 C 28.328125 -15.085938 30.753906 -12.59375 34.015625 -12.59375 C 37.660156 -12.59375 40.367188 -14.691406 42.140625 -18.890625 C 43.910156 -23.097656 44.84375 -25.296875 44.9375 -25.484375 L 59.78125 -19.875 C 57.820312 -13.15625 54.691406 -7.859375 50.390625 -3.984375 C 46.097656 -0.117188 40.5 1.8125 33.59375 1.8125 Z M 43.265625 -48.015625 C 43.265625 -53.617188 42.515625 -58.050781 41.015625 -61.3125 C 39.523438 -64.582031 37.191406 -66.21875 34.015625 -66.21875 C 32.429688 -66.21875 30.890625 -65.421875 29.390625 -63.828125 C 27.898438 -62.242188 26.6875 -60.050781 25.75 -57.25 C 24.820312 -54.457031 24.359375 -51.378906 24.359375 -48.015625 Z M 43.265625 -48.015625 "/></g></g></g></svg>