<svg xmlns="http://www.w3.org/2000/svg" xmlns:xlink="http://www.w3.org/1999/xlink" width="500" zoomAndPan="magnify" viewBox="0 0 375 374.999991" height="500" preserveAspectRatio="xMidYMid meet" version="1.0"><defs><g/></defs><g fill="#000000" fill-opacity="1"><g transform="translate(98.302351, 170.447684)"><g><path d="M 23.265625 1.328125 C 17.640625 1.328125 13.097656 0.0546875 9.640625 -2.484375 C 6.191406 -5.023438 3.960938 -8.566406 2.953125 -13.109375 L 14.015625 -16.765625 C 14.285156 -15.472656 14.796875 -14.320312 15.546875 -13.3125 C 17.097656 -11.070312 19.363281 -9.953125 22.34375 -9.953125 C 24.039062 -9.953125 25.664062 -10.320312 27.21875 -11.0625 C 28.78125 -11.8125 29.5625 -12.96875 29.5625 -14.53125 C 29.5625 -16.625 28.101562 -18.25 25.1875 -19.40625 L 13.203125 -24.28125 C 10.023438 -25.632812 7.585938 -27.664062 5.890625 -30.375 C 4.203125 -33.082031 3.359375 -36.398438 3.359375 -40.328125 C 3.359375 -43.984375 4.253906 -47.132812 6.046875 -49.78125 C 7.835938 -52.425781 10.207031 -54.441406 13.15625 -55.828125 C 16.101562 -57.210938 19.269531 -57.90625 22.65625 -57.90625 C 26.925781 -57.90625 30.851562 -56.664062 34.4375 -54.1875 C 38.03125 -51.71875 40.4375 -48.351562 41.65625 -44.09375 L 29.875 -40.4375 C 29.601562 -41.582031 29.128906 -42.734375 28.453125 -43.890625 C 26.960938 -46.191406 25.0625 -47.34375 22.75 -47.34375 C 21.0625 -47.34375 19.609375 -46.953125 18.390625 -46.171875 C 17.171875 -45.390625 16.5625 -44.253906 16.5625 -42.765625 C 16.5625 -41.003906 18.21875 -39.378906 21.53125 -37.890625 L 31.703125 -33.734375 C 35.285156 -32.035156 38.09375 -29.898438 40.125 -27.328125 C 42.15625 -24.753906 43.171875 -21.300781 43.171875 -16.96875 C 43.171875 -13.039062 42.222656 -9.703125 40.328125 -6.953125 C 38.429688 -4.210938 35.957031 -2.144531 32.90625 -0.75 C 29.863281 0.632812 26.648438 1.328125 23.265625 1.328125 Z M 23.265625 1.328125 "/></g></g></g><g fill="#000000" fill-opacity="1"><g transform="translate(144.119399, 170.447684)"><g><path d="M 24.78125 1.328125 C 17.945312 1.328125 12.679688 -1.378906 8.984375 -6.796875 C 5.296875 -12.222656 3.453125 -19.441406 3.453125 -28.453125 C 3.453125 -37.390625 5.28125 -44.53125 8.9375 -49.875 C 12.59375 -55.226562 17.875 -57.90625 24.78125 -57.90625 C 31.625 -57.90625 36.925781 -55.226562 40.6875 -49.875 C 44.445312 -44.53125 46.328125 -37.390625 46.328125 -28.453125 C 46.328125 -19.503906 44.445312 -12.300781 40.6875 -6.84375 C 36.925781 -1.394531 31.625 1.328125 24.78125 1.328125 Z M 24.78125 -9.25 C 27.832031 -9.25 29.796875 -11.109375 30.671875 -14.828125 C 31.554688 -18.554688 32 -23.128906 32 -28.546875 C 32 -33.960938 31.554688 -38.53125 30.671875 -42.25 C 29.796875 -45.976562 27.832031 -47.84375 24.78125 -47.84375 C 21.738281 -47.84375 19.8125 -46.082031 19 -42.5625 C 18.1875 -39.039062 17.78125 -34.742188 17.78125 -29.671875 C 17.78125 -23.429688 18.1875 -18.46875 19 -14.78125 C 19.8125 -11.09375 21.738281 -9.25 24.78125 -9.25 Z M 24.78125 -9.25 "/></g></g></g><g fill="#000000" fill-opacity="1"><g transform="translate(193.89846, 170.447684)"><g><path d="M 18.484375 1.328125 C 14.765625 1.328125 11.71875 0.0234375 9.34375 -2.578125 C 6.976562 -5.191406 5.796875 -8.703125 5.796875 -13.109375 L 5.796875 -55.984375 L 20.015625 -57.203125 L 20.015625 -18.890625 C 20.015625 -16.179688 20.453125 -14.234375 21.328125 -13.046875 C 22.210938 -11.867188 23.566406 -11.28125 25.390625 -11.28125 C 26.816406 -11.28125 28.34375 -11.632812 29.96875 -12.34375 C 31.59375 -13.050781 33.050781 -14.1875 34.34375 -15.75 L 34.34375 -55.984375 L 48.65625 -57.203125 L 48.65625 -0.609375 L 34.34375 0.609375 L 34.34375 -6.703125 C 31.96875 -3.992188 29.375 -1.976562 26.5625 -0.65625 C 23.75 0.664062 21.054688 1.328125 18.484375 1.328125 Z M 18.484375 1.328125 "/></g></g></g><g fill="#000000" fill-opacity="1"><g transform="translate(248.655427, 170.447684)"><g><path d="M 23.265625 1.328125 C 17.640625 1.328125 13.097656 0.0546875 9.640625 -2.484375 C 6.191406 -5.023438 3.960938 -8.566406 2.953125 -13.109375 L 14.015625 -16.765625 C 14.285156 -15.472656 14.796875 -14.320312 15.546875 -13.3125 C 17.097656 -11.070312 19.363281 -9.953125 22.34375 -9.953125 C 24.039062 -9.953125 25.664062 -10.320312 27.21875 -11.0625 C 28.78125 -11.8125 29.5625 -12.96875 29.5625 -14.53125 C 29.5625 -16.625 28.101562 -18.25 25.1875 -19.40625 L 13.203125 -24.28125 C 10.023438 -25.632812 7.585938 -27.664062 5.890625 -30.375 C 4.203125 -33.082031 3.359375 -36.398438 3.359375 -40.328125 C 3.359375 -43.984375 4.253906 -47.132812 6.046875 -49.78125 C 7.835938 -52.425781 10.207031 -54.441406 13.15625 -55.828125 C 16.101562 -57.210938 19.269531 -57.90625 22.65625 -57.90625 C 26.925781 -57.90625 30.851562 -56.664062 34.4375 -54.1875 C 38.03125 -51.71875 40.4375 -48.351562 41.65625 -44.09375 L 29.875 -40.4375 C 29.601562 -41.582031 29.128906 -42.734375 28.453125 -43.890625 C 26.960938 -46.191406 25.0625 -47.34375 22.75 -47.34375 C 21.0625 -47.34375 19.609375 -46.953125 18.390625 -46.171875 C 17.171875 -45.390625 16.5625 -44.253906 16.5625 -42.765625 C 16.5625 -41.003906 18.21875 -39.378906 21.53125 -37.890625 L 31.703125 -33.734375 C 35.285156 -32.035156 38.09375 -29.898438 40.125 -27.328125 C 42.15625 -24.753906 43.171875 -21.300781 43.171875 -16.96875 C 43.171875 -13.039062 42.222656 -9.703125 40.328125 -6.953125 C 38.429688 -4.210938 35.957031 -2.144531 32.90625 -0.75 C 29.863281 0.632812 26.648438 1.328125 23.265625 1.328125 Z M 23.265625 1.328125 "/></g></g></g><g fill="#000000" fill-opacity="1"><g transform="translate(86.578169, 254.096175)"><g><path d="M 16.328125 0 L 0.40625 -55.90625 L 17.453125 -57.125 L 24.65625 -20.59375 L 32.875 -55.296875 L 45.75 -56.515625 L 29.421875 0 Z M 16.328125 0 "/></g></g></g><g fill="#000000" fill-opacity="1"><g transform="translate(132.737543, 254.096175)"><g><path d="M 6.296875 -64.421875 L 6.296875 -79.140625 L 20.5 -80.140625 L 20.5 -65.03125 Z M 6.1875 0.609375 L 6.1875 -55.90625 L 20.390625 -57.125 L 20.390625 -0.609375 Z M 6.1875 0.609375 "/></g></g></g><g fill="#000000" fill-opacity="1"><g transform="translate(159.418674, 254.096175)"><g><path d="M 6.1875 -55.90625 L 20.390625 -57.125 L 20.390625 -49.8125 C 23.296875 -52.382812 26.148438 -54.363281 28.953125 -55.75 C 31.765625 -57.132812 34.351562 -57.828125 36.71875 -57.828125 C 40.3125 -57.828125 43.238281 -56.523438 45.5 -53.921875 C 47.769531 -51.316406 48.90625 -47.816406 48.90625 -43.421875 L 48.90625 -0.609375 L 34.703125 0.609375 L 34.703125 -38.046875 C 34.703125 -43.117188 32.972656 -45.65625 29.515625 -45.65625 C 28.367188 -45.65625 27.101562 -45.316406 25.71875 -44.640625 C 24.332031 -43.960938 22.554688 -42.984375 20.390625 -41.703125 L 20.390625 -0.609375 L 6.1875 0.609375 Z M 6.1875 -55.90625 "/></g></g></g><g fill="#000000" fill-opacity="1"><g transform="translate(214.099789, 254.096175)"><g><path d="M 24.34375 1.3125 C 17.582031 1.3125 12.410156 -1.375 8.828125 -6.75 C 5.242188 -12.125 3.453125 -19.273438 3.453125 -28.203125 C 3.453125 -37.265625 5.273438 -44.46875 8.921875 -49.8125 C 12.578125 -55.15625 17.890625 -57.828125 24.859375 -57.828125 C 31.484375 -57.828125 36.550781 -55.15625 40.0625 -49.8125 C 43.582031 -44.46875 45.34375 -37.265625 45.34375 -28.203125 C 45.34375 -27.660156 45.238281 -27.269531 45.03125 -27.03125 C 44.832031 -26.800781 44.734375 -26.648438 44.734375 -26.578125 L 17.65625 -26.578125 C 17.65625 -22.179688 18.226562 -18.171875 19.375 -14.546875 C 20.53125 -10.929688 22.289062 -9.125 24.65625 -9.125 C 27.289062 -9.125 29.25 -10.644531 30.53125 -13.6875 C 31.820312 -16.738281 32.5 -18.332031 32.5625 -18.46875 L 43.328125 -14.40625 C 41.898438 -9.539062 39.628906 -5.703125 36.515625 -2.890625 C 33.410156 -0.0859375 29.351562 1.3125 24.34375 1.3125 Z M 31.34375 -34.796875 C 31.34375 -38.859375 30.800781 -42.070312 29.71875 -44.4375 C 28.644531 -46.800781 26.957031 -47.984375 24.65625 -47.984375 C 23.5 -47.984375 22.378906 -47.40625 21.296875 -46.25 C 20.222656 -45.101562 19.347656 -43.515625 18.671875 -41.484375 C 17.992188 -39.460938 17.65625 -37.234375 17.65625 -34.796875 Z M 31.34375 -34.796875 "/></g></g></g></svg>